<?xml version="1.0" encoding="utf-8"?>
<!-- Generator: Adobe Illustrator 19.1.0, SVG Export Plug-In . SVG Version: 6.00 Build 0)  -->
<svg version="1.1" id="unKani" xmlns="http://www.w3.org/2000/svg" xmlns:xlink="http://www.w3.org/1999/xlink" x="0px" y="0px"
	 viewBox="0 0 350 100" style="enable-background:new 0 0 350 100;" xml:space="preserve">
<style type="text/css">
	.st0{fill:#45434A;}
	.st1{clip-path:url(#SVGID_2_);}
	.st2{clip-path:url(#SVGID_4_);fill:#45434A;}
</style>
<g>
	<g>
		<path class="st0" d="M72.8,66.8V33.8h8.7V65c0,6.5,2.1,12.7,10.5,12.7c9.3,0,8.2-3.1,8.2-15.7l-0.1-28.2h8.9v37.5
			c0,5.4-2.7,9.8-8,11.7c-6.8,2.4-13.2,2-19.9-1.2C75.9,79.3,72.8,72.5,72.8,66.8z"/>
		<path class="st0" d="M121.9,47c0-4.4,0-8.8-0.1-12.7h8.5c0.3,1.5,0.3,1.8,0.3,3.2c2.2-1.8,6.2-4.4,16-4.4c9.6,0,17,5.7,17,19.1
			v32.2h-8.8V53.3c0-7.6-4.4-12.6-12.1-12.6c-9.6,0-12,7.2-12,17.3v26.5h-8.8V47z"/>
		<path class="st0" d="M207,15.7h8.2L200.5,39l-8.2,11.5c0,0,5.9,6.5,11.5,13.9c6.2,8.3,12.2,17.6,13.4,19.1c0.1,0.1,0.1,1,0.1,1
			l-10.6-0.2L196.2,68l-10.4-11.8l-2.3,2.3v25.9h-9.1V15.7h9.1v32.6c0,0,8.8-10.1,10-11.7c0.1-0.1,0.2-0.2,0.2-0.2L207,15.7z"/>
		<path class="st0" d="M270.5,47c0-4.4,0-8.8-0.1-12.7h8.5c0.3,1.5,0.3,1.8,0.3,3.2c2.2-1.8,6.2-4.4,16-4.4c9.6,0,17,5.7,17,19.1
			v32.2h-8.8V53.3c0-7.6-4.4-12.6-12.1-12.6c-9.6,0-12,7.2-12,17.3v26.5h-8.8V47z"/>
		<g>
			<path class="st0" d="M242.5,43.7c0,0-3.5,0-3.5,0c-8.8,0.1-13.4,3.6-13.4,14.9c0,11.5,4.8,19.3,13.6,19.3c6.3,0,1.6,0,8.1,0
				l1,6.4c-10,0.6-3,0.4-9.1,0.7c-14,0.6-22.6-9.9-22.6-26c0-14.1,7.6-22.9,22.7-22.5c1.8,0.1,3.3,0.1,3.3,0.1"/>
			<rect x="248.4" y="34.1" class="st0" width="8.8" height="50.1"/>
		</g>
		<g>
			<rect x="325.5" y="34.7" class="st0" width="8.8" height="50.1"/>
			<rect x="325.5" y="21.6" class="st0" width="8.8" height="6.8"/>
		</g>
	</g>
	<g>
		<g>
			<defs>
				<rect id="SVGID_1_" x="-24.1" y="0.7" width="134.8" height="100"/>
			</defs>
			<clipPath id="SVGID_2_">
				<use xlink:href="#SVGID_1_"  style="overflow:visible;"/>
			</clipPath>
			<g class="st1">
				<defs>
					<rect id="SVGID_3_" x="-24.1" y="0.7" width="134.8" height="100"/>
				</defs>
				<clipPath id="SVGID_4_">
					<use xlink:href="#SVGID_3_"  style="overflow:visible;"/>
				</clipPath>
				<path class="st2" d="M65.3,75.9c-0.9-0.3-2.8-0.5-4-1.3c0,0-2.4-1-3.2-4c-0.3-1.1-0.2-0.9,0.4-2.9c0.2-0.8,0.5-3.4,0.9-4.4
					c0,0,7.1-8.1-5.5-25.2c0.1-0.2,0.8-1.1,1-2.4c0.1-0.7,6-3.3,2.7-15.2c0,0,0.3-0.7,0-2.3c-0.3-1.7-6.2-9.9-6.2-9.9
					s-0.4-0.3-1-0.4c-0.6-0.1-1.1,0.3-1.2,0.3c0,0-0.9,4.4-4.4,9.5c0,0-1.3-1-3.8-0.2c0,0-4.3-4.1-7.3-10.4c0,0-1.3-1.2-1.6-0.1
					c-2.1,7.9-3.5,11.9-3.5,11.9s-1.3,0.8-2,2.3c-0.7,1.5-2.8,9.4,6.4,15.8c-0.1,0.9-1.1,8.4-5.9,13.9c-1.4,1.6-2,2.3-2.2,2.5
					c0,0-0.5,0.3-3,2.7C15.6,61.9,16,78.1,20,78c0,0-5.2,2.9-2.8,8.5c0,0,1.2,6,9.6,4.1c3.5-0.8,5.4,0.5,7.2,1.6
					c2.5,1.5,5.1,2.5,5.1,2.5s8.5,1.7,3-3.8c0,0-1.2-1.2-3.5-2.2c0,0-2.1-2.4-6-3.3c-4.5-1-11.9,4-9.1-4.6c0,0,6,6,33.1,4.2
					c0,0,7.5,1,10.9-1.5C69.3,82.2,73.3,78.1,65.3,75.9 M45.1,37.4l0.5-0.3l0.7-0.2l0.8,0.2l0.3,0.3l-0.1,0.3l-0.2,0.2l-0.4,0.4
					l-0.4,0.3l-0.3,0h-0.4l-0.3-0.3l-0.3-0.3L45,37.9l-0.1-0.2L45.1,37.4z"/>
			</g>
		</g>
	</g>
</g>
</svg>
