<?xml version="1.0" encoding="utf-8"?>
<!-- Generator: Adobe Illustrator 19.1.0, SVG Export Plug-In . SVG Version: 6.00 Build 0)  -->
<svg version="1.1" id="Icon" xmlns="http://www.w3.org/2000/svg" xmlns:xlink="http://www.w3.org/1999/xlink" x="0px" y="0px"
	 viewBox="0 0 800 800" style="enable-background:new 0 0 800 800;" xml:space="preserve">
<style type="text/css">
	.st0{fill:#EFEFEF;}
	.st1{fill:#45434A;}
</style>
<polygon class="st0" points="411,304.5 412.7,306.1 414.6,307.8 416.8,307.8 418.4,307.6 420.6,305.7 422.8,303.4 423.9,302.2 
	424.4,300.5 422.5,298.7 417.4,297.4 413,298.7 410,300.6 409.1,302.3 409.6,303.4 "/>
<path class="st1" d="M573.8,602c-7.2-2-22.1-4-31.8-10c0,0-19.3-7.9-25.3-31.7c-2.2-8.7-1.4-7.5,2.8-23.2c1.8-6.8,3.6-27.2,7.1-35.6
	c0,0,56.4-65-43.6-202.2c1.2-2.2,7.7-14.7,7.7-19.5c0-5.3,47.6-26.4,21.1-121.5c0,0,2.6-5.3,0-18.5c-2.6-13.2-48.9-79.3-48.9-79.3
	s-3.5-2.7-8-3.6c-4.5-0.9-8.8,2.1-9.7,2.5c0,0-7.4,35.4-35.2,76.4c0,0-10.6-7.9-30.4-1.3c0,0-33.8-33.2-57.5-83.4
	c0,0-10.3-9.6-12.5-1.1c-16.5,63.4-27.7,95.1-27.7,95.1s-10.6,6.6-15.9,18.5c-5.3,11.9-22.4,75,51.1,126.5
	c-0.8,7.4-8.5,66.9-46.8,111c-11,12.7-15.5,18.1-17.2,20.3c-0.2-0.3-4.1,2.6-23.8,21.5c-48.9,47.1-46.3,176.7-14.2,175.8
	c0,0-41.5,23.5-22.2,67.9c0,0,9.8,48,75.6,32.9c27.3-6.3,42.7,3.7,56.9,12.5c20.1,12.4,40.7,20.2,40.7,20.2s67.4,13.6,23.6-30
	c0,0-9.5-9.3-27.6-17.3c0,0-17-19.3-47.4-26.2c-35.9-8.2-94.3,32-72.1-36.5c0,0,47.3,47.7,261.7,33.5c0,0,59.5,7.9,85.9-12.1
	C605.5,652.1,637.7,619.9,573.8,602z M410,300.6l2.9-1.9l4.5-1.3l5.1,1.3l1.9,1.8l-0.6,1.7l-1.1,1.1l-2.2,2.3l-2.2,1.9l-1.6,0.2
	h-2.2l-1.9-1.6l-1.6-1.6l-1.4-1.1l-0.5-1.1L410,300.6z"/>
</svg>
