<?xml version="1.0" encoding="utf-8"?>
<!-- Generator: Adobe Illustrator 19.1.0, SVG Export Plug-In . SVG Version: 6.00 Build 0)  -->
<svg version="1.1" id="unKani" xmlns="http://www.w3.org/2000/svg" xmlns:xlink="http://www.w3.org/1999/xlink" x="0px" y="0px"
	 viewBox="0 0 400 100" style="enable-background:new 0 0 400 100;" xml:space="preserve">
<style type="text/css">
	.st0{fill:#45434A;}
</style>
<g>
	<path class="st0" d="M25,72.3V27.7h11.6v42.2c0,8.8,2.8,17.1,14.1,17.1c12.5,0,11-4.2,11-21.2l-0.1-38.1h11.9v50.8
		c0,7.3-3.7,13.2-10.8,15.8c-9.1,3.3-17.6,2.7-26.7-1.7C29.1,89.3,24.9,80.1,25,72.3z"/>
	<path class="st0" d="M90.7,45.6c0-5.9,0-11.9-0.1-17.1H102c0.4,2,0.4,2.4,0.4,4.4c3-2.5,8.4-6,21.5-6c12.9,0,22.7,7.8,22.7,25.8
		v43.6h-11.8V54.2c0-10.3-5.9-17.1-16.2-17.1c-12.9,0-16.1,9.7-16.1,23.4v35.9H90.7V45.6z"/>
	<path class="st0" d="M204.7,3.1h11L196,34.7l-11,15.5c0,0,7.9,8.8,15.4,18.8c8.3,11.2,16.3,23.9,17.9,25.9c0.1,0.2,0.2,1.3,0.2,1.3
		l-14.2-0.2L190.2,74l-13.9-15.9l-3.1,3.2v35.1H161V3.1h12.2v44.1c0,0,11.8-13.6,13.4-15.8c0.1-0.2,0.2-0.3,0.2-0.3L204.7,3.1z"/>
	<path class="st0" d="M289.6,45.6c0-5.9,0-11.9-0.1-17.1h11.4c0.4,2,0.4,2.4,0.4,4.4c3-2.5,8.4-6,21.5-6c12.9,0,22.7,7.8,22.7,25.8
		v43.6h-11.8V54.2c0-10.3-5.9-17.1-16.2-17.1c-12.9,0-16.1,9.7-16.1,23.4v35.9h-11.8V45.6z"/>
	<g>
		<path class="st0" d="M252.2,41c0,0-4.7-0.1-4.7-0.1c-11.8,0.1-17.9,4.9-17.9,20.2c0,15.5,6.4,26.2,18.2,26.2c8.4,0,2.1,0,10.9,0
			l1.3,8.6c-13.4,0.8-4,0.5-12.2,0.9c-18.7,0.9-30.3-13.4-30.3-35.2c0-19.1,10.2-31,30.4-30.4c2.4,0.1,4.4,0.1,4.4,0.1"/>
		<rect x="260" y="28.1" class="st0" width="11.8" height="67.9"/>
	</g>
	<g>
		<rect x="363.2" y="29" class="st0" width="11.8" height="67.9"/>
		<rect x="363.2" y="11.1" class="st0" width="11.8" height="9.2"/>
	</g>
</g>
</svg>
