<?xml version="1.0" encoding="utf-8"?>
<!-- Generator: Adobe Illustrator 19.1.0, SVG Export Plug-In . SVG Version: 6.00 Build 0)  -->
<svg version="1.1" id="unKani" xmlns="http://www.w3.org/2000/svg" xmlns:xlink="http://www.w3.org/1999/xlink" x="0px" y="0px"
	 viewBox="0 0 400 100" style="enable-background:new 0 0 400 100;" xml:space="preserve">
<style type="text/css">
	.st0{fill:#9682BC;}
	.st1{fill:#45434A;}
	.st2{clip-path:url(#SVGID_2_);fill:#EFEFEF;}
	.st3{clip-path:url(#SVGID_2_);}
	.st4{clip-path:url(#SVGID_4_);fill:#45434A;}
</style>
<path class="st0" d="M381.9,98.7H18.1c-5.2,0-9.4-4.3-9.4-9.4V10.8c0-5.2,4.3-9.4,9.4-9.4h363.8c5.2,0,9.4,4.3,9.4,9.4v78.4
	C391.3,94.4,387.1,98.7,381.9,98.7z"/>
<g>
	<g>
		<path class="st1" d="M101.1,66.1V33.1h9.1v31.2c0,6.5,2.2,12.7,11,12.7c9.7,0,8.6-3.1,8.6-15.7l-0.1-28.2h9.3v37.5
			c0,5.4-2.9,9.8-8.4,11.7c-7.1,2.4-13.7,2-20.8-1.2C104.3,78.6,101,71.8,101.1,66.1z"/>
		<path class="st1" d="M152.3,46.3c0-4.4,0-8.8-0.1-12.7h8.9c0.3,1.5,0.3,1.8,0.3,3.2c2.3-1.8,6.5-4.4,16.7-4.4
			c10,0,17.7,5.7,17.7,19.1v32.2h-9.2V52.6C186.6,45,182,40,174,40c-10,0-12.5,7.2-12.5,17.3v26.5h-9.2V46.3z"/>
		<path class="st1" d="M241,15h8.5l-15.3,23.3l-8.5,11.5c0,0,6.2,6.5,12,13.9c6.5,8.3,12.7,17.6,13.9,19.1c0.1,0.1,0.1,1,0.1,1
			l-11-0.2l-11-16.3l-10.9-11.8l-2.4,2.3v25.9H207V15h9.5v32.6c0,0,9.2-10.1,10.5-11.7c0.1-0.1,0.2-0.2,0.2-0.2L241,15z"/>
		<path class="st1" d="M307.2,46.3c0-4.4,0-8.8-0.1-12.7h8.9c0.3,1.5,0.3,1.8,0.3,3.2c2.3-1.8,6.5-4.4,16.7-4.4
			c10,0,17.7,5.7,17.7,19.1v32.2h-9.2V52.6c0-7.6-4.6-12.6-12.6-12.6c-10,0-12.5,7.2-12.5,17.3v26.5h-9.2V46.3z"/>
		<g>
			<path class="st1" d="M278,43c0,0-3.6,0-3.7,0c-9.2,0.1-13.9,3.6-13.9,14.9c0,11.5,5,19.3,14.2,19.3c6.6,0,1.7,0,8.5,0l1,6.4
				c-10.5,0.6-3.1,0.4-9.5,0.7c-14.6,0.6-23.6-9.9-23.6-26c0-14.1,7.9-22.9,23.6-22.5c1.9,0.1,3.4,0.1,3.4,0.1"/>
			<rect x="284.1" y="33.4" class="st1" width="9.2" height="50.1"/>
		</g>
		<g>
			<rect x="364.5" y="34" class="st1" width="9.2" height="50.1"/>
			<rect x="364.5" y="20.9" class="st1" width="9.2" height="6.8"/>
		</g>
	</g>
	<g>
		<g>
			<defs>
				<rect id="SVGID_1_" x="0" width="140.6" height="100"/>
			</defs>
			<clipPath id="SVGID_2_">
				<use xlink:href="#SVGID_1_"  style="overflow:visible;"/>
			</clipPath>
			<polygon class="st2" points="71.8,38 72,38.2 72.2,38.4 72.5,38.4 72.7,38.4 73,38.2 73.3,37.9 73.4,37.8 73.5,37.5 73.3,37.3 
				72.6,37.1 72,37.3 71.6,37.5 71.5,37.8 71.6,37.9 			"/>
			<g class="st3">
				<defs>
					<rect id="SVGID_3_" x="0" width="140.6" height="100"/>
				</defs>
				<clipPath id="SVGID_4_">
					<use xlink:href="#SVGID_3_"  style="overflow:visible;"/>
				</clipPath>
				<path class="st4" d="M93.2,75.2c-1-0.3-2.9-0.5-4.2-1.3c0,0-2.5-1-3.3-4c-0.3-1.1-0.2-0.9,0.4-2.9c0.2-0.8,0.5-3.4,0.9-4.4
					c0,0,7.4-8.1-5.7-25.2c0.1-0.2,0.9-1.1,1-2.4c0.1-0.7,6.3-3.3,2.8-15.2c0,0,0.3-0.7,0-2.3c-0.3-1.7-6.4-9.9-6.4-9.9
					s-0.5-0.3-1.1-0.4C77,7,76.4,7.4,76.3,7.4c0,0-1,4.4-4.6,9.5c0,0-1.4-1-4-0.2c0,0-4.4-4.1-7.6-10.4c0,0-1.4-1.2-1.6-0.1
					c-2.2,7.9-3.7,11.9-3.7,11.9s-1.4,0.8-2.1,2.3c-0.7,1.5-2.9,9.4,6.7,15.8c-0.1,0.9-1.1,8.4-6.2,13.9c-1.4,1.6-2,2.3-2.3,2.5
					c0,0-0.5,0.3-3.1,2.7c-6.4,5.9-6.1,22.1-1.9,22c0,0-5.5,2.9-2.9,8.5c0,0,1.3,6,10,4.1c3.6-0.8,5.6,0.5,7.5,1.6
					c2.6,1.5,5.4,2.5,5.4,2.5s8.9,1.7,3.1-3.8c0,0-1.3-1.2-3.6-2.2c0,0-2.2-2.4-6.2-3.3c-4.7-1-12.4,4-9.5-4.6c0,0,6.2,6,34.5,4.2
					c0,0,7.8,1,11.3-1.5C97.4,81.5,101.6,77.4,93.2,75.2 M71.6,37.5l0.4-0.2l0.6-0.2l0.7,0.2l0.2,0.2l-0.1,0.2l-0.1,0.1L73,38.2
					l-0.3,0.2l-0.2,0h-0.3L72,38.2L71.8,38l-0.2-0.1l-0.1-0.1L71.6,37.5z"/>
			</g>
		</g>
	</g>
</g>
</svg>
