<?xml version="1.0" encoding="utf-8"?>
<!-- Generator: Adobe Illustrator 19.1.0, SVG Export Plug-In . SVG Version: 6.00 Build 0)  -->
<svg version="1.1" id="unKani" xmlns="http://www.w3.org/2000/svg" xmlns:xlink="http://www.w3.org/1999/xlink" x="0px" y="0px"
	 viewBox="0 0 800 600" style="enable-background:new 0 0 800 600;" xml:space="preserve">
<style type="text/css">
	.st0{fill:#45434A;}
	.st1{clip-path:url(#SVGID_2_);fill:#EFEFEF;}
	.st2{clip-path:url(#SVGID_2_);}
	.st3{clip-path:url(#SVGID_4_);fill:#45434A;}
</style>
<g>
	<g>
		<path class="st0" d="M189.8,334v-69.6H208v65.9c0,13.8,4.4,26.8,22,26.8c19.4,0,17.2-6.6,17.2-33.1l-0.2-59.5h18.6v79.4
			c0,11.4-5.7,20.6-16.8,24.6c-14.3,5.2-27.5,4.1-41.6-2.6C196.2,360.5,189.7,346.1,189.8,334z"/>
		<path class="st0" d="M292.4,292.2c0-9.2,0-18.6-0.2-26.8H310c0.6,3.1,0.6,3.7,0.6,6.9c4.6-3.8,13-9.4,33.5-9.4
			c20.1,0,35.5,12.1,35.5,40.3v68.2h-18.4v-65.9c0-16.1-9.2-26.6-25.3-26.6c-20.1,0-25.1,15.1-25.1,36.5v56h-18.4V292.2z"/>
		<path class="st0" d="M470.3,225.9h17.1l-30.7,49.3l-17.1,24.3c0,0,12.4,13.7,24.1,29.4c13,17.4,25.5,37.3,27.9,40.4
			c0.2,0.2,0.3,2.1,0.3,2.1l-22.1-0.4l-22.1-34.5l-21.8-24.9l-4.8,4.9v54.8h-19V225.9h19v68.9c0,0,18.5-21.2,21-24.7
			c0.2-0.3,0.3-0.4,0.3-0.4L470.3,225.9z"/>
		<path class="st0" d="M603,292.2c0-9.2,0-18.6-0.2-26.8h17.8c0.6,3.1,0.6,3.7,0.6,6.9c4.6-3.8,13-9.4,33.5-9.4
			c20.1,0,35.5,12.1,35.5,40.3v68.2h-18.4v-65.9c0-16.1-9.2-26.6-25.3-26.6c-20.1,0-25.1,15.1-25.1,36.5v56H603V292.2z"/>
		<g>
			<path class="st0" d="M544.5,285.1c0,0-7.3-0.1-7.4-0.1c-18.5,0.1-27.9,7.6-27.9,31.6c0,24.3,10,40.8,28.4,40.8
				c13.2,0,3.3,0,17-0.1l2.1,13.4c-21,1.2-6.3,0.8-19.1,1.4c-29.2,1.3-47.2-20.9-47.2-55c0-29.9,15.9-48.5,47.4-47.5
				c3.8,0.1,6.8,0.2,6.8,0.2"/>
			<rect x="556.7" y="264.9" class="st0" width="18.4" height="106"/>
		</g>
		<g>
			<rect x="717.9" y="266.3" class="st0" width="18.4" height="106"/>
			<rect x="717.9" y="238.4" class="st0" width="18.4" height="14.4"/>
		</g>
	</g>
	<g>
		<g>
			<defs>
				<rect id="SVGID_1_" x="-12.8" y="194.3" width="281.8" height="211.4"/>
			</defs>
			<clipPath id="SVGID_2_">
				<use xlink:href="#SVGID_1_"  style="overflow:visible;"/>
			</clipPath>
			<polygon class="st1" points="131,274.7 131.5,275.1 132,275.6 132.6,275.6 133,275.5 133.6,275 134.2,274.4 134.4,274.1 
				134.6,273.6 134.1,273.2 132.7,272.8 131.6,273.2 130.8,273.7 130.5,274.1 130.7,274.4 			"/>
			<g class="st2">
				<defs>
					<rect id="SVGID_3_" x="-12.8" y="194.3" width="281.8" height="211.4"/>
				</defs>
				<clipPath id="SVGID_4_">
					<use xlink:href="#SVGID_3_"  style="overflow:visible;"/>
				</clipPath>
				<path class="st3" d="M174,353.3c-1.9-0.5-5.8-1.1-8.4-2.7c0,0-5.1-2.1-6.7-8.4c-0.6-2.3-0.4-2,0.7-6.1c0.5-1.8,0.9-7.2,1.9-9.4
					c0,0,14.9-17.1-11.5-53.4c0.3-0.4,1.7-2.4,2-5.2c0.1-1.4,12.6-7,5.6-32.1c0,0,0.7-1.4,0-4.9c-0.7-3.5-12.9-20.9-12.9-20.9
					s-0.9-0.7-2.1-0.9c-1.2-0.2-2.3,0.6-2.6,0.7c0,0-2,9.4-9.3,20.2c0,0-2.8-2.1-8-0.3c0,0-8.9-8.8-15.2-22c0,0-2.7-2.5-3.3-0.3
					c-4.4,16.7-7.3,25.1-7.3,25.1s-2.8,1.7-4.2,4.9c-1.4,3.1-5.9,19.8,13.5,33.4c-0.2,2-2.2,17.7-12.4,29.3
					c-2.9,3.3-4.1,4.8-4.5,5.3c-0.1-0.1-1.1,0.7-6.3,5.7c-12.9,12.4-12.2,46.7-3.8,46.4c0,0-11,6.2-5.9,17.9c0,0,2.6,12.7,20,8.7
					c7.2-1.7,11.3,1,15,3.3c5.3,3.3,10.7,5.3,10.7,5.3s17.8,3.6,6.2-7.9c0,0-2.5-2.5-7.3-4.6c0,0-4.5-5.1-12.5-6.9
					c-9.5-2.2-24.9,8.5-19-9.6c0,0,12.5,12.6,69.1,8.8c0,0,15.7,2.1,22.7-3.2C182.4,366.5,190.9,358,174,353.3 M130.8,273.7l0.8-0.5
					l1.2-0.3l1.4,0.4l0.5,0.5l-0.1,0.5l-0.3,0.3l-0.6,0.6l-0.6,0.5l-0.4,0H132l-0.5-0.4l-0.4-0.4l-0.4-0.3l-0.1-0.3L130.8,273.7z"/>
			</g>
		</g>
	</g>
</g>
</svg>
